HIERARCHY
ROOT pelvis
{
  OFFSET 0 100 0
  CHANNELS 6 Xposition Yposition Zposition Zrotation Xrotation Yrotation
  JOINT pelvis_right_femur
  {
    OFFSET -10.78128 -3.44521 -0.5502486
    CHANNELS 3 Zrotation Xrotation Yrotation
    JOINT right_femur_tibia
    {
      OFFSET -0.8047443 -44.0398 -0.1307829
      CHANNELS 3 Zrotation Xrotation Yrotation
      JOINT right_tibia_foot
      {
        OFFSET 3.006224 -47.83518 -5
        CHANNELS 3 Zrotation Xrotation Yrotation
        End Site
        {
          OFFSET 0 -5 15
        }
      }
    }
  }
  JOINT pelvis_left_femur
  {
    OFFSET 10.78128 -3.44521 -0.5502486
    CHANNELS 3 Zrotation Xrotation Yrotation
    JOINT left_femur_tibia
    {
      OFFSET 0.8047443 -44.0398 -0.1307829
      CHANNELS 3 Zrotation Xrotation Yrotation
      JOINT left_tibia_foot
      {
        OFFSET -4.370144 -48.10324 -4.275266
        CHANNELS 3 Zrotation Xrotation Yrotation
        End Site
        {
          OFFSET 0 -5 15
        }
      }
    }
  }
  JOINT pelvis_spine1
  {
    OFFSET 0 6.468898 -3.129235
    CHANNELS 3 Zrotation Xrotation Yrotation
    JOINT spine1
    {
      OFFSET 0 23.15396 4.99043
      CHANNELS 3 Zrotation Xrotation Yrotation
      JOINT spine2
      {
        OFFSET 0 20.79997 -5.064912
        CHANNELS 3 Zrotation Xrotation Yrotation
        JOINT neck
        {
          OFFSET 0 14.38658 9.616178
          CHANNELS 3 Zrotation Xrotation Yrotation
          End Site
          {
            OFFSET 0 20 0
          }
        }
      }
      JOINT right_manubrium
      {
        OFFSET -5.722621 16.35077 3.967754
        CHANNELS 3 Zrotation Xrotation Yrotation
        JOINT right_clavicle
        {
          OFFSET -13.16364 1.694482 -4.693211
          CHANNELS 3 Zrotation Xrotation Yrotation
          JOINT right_humerus
          {
            OFFSET -28.5034 -0.3100689 -2.792744
            CHANNELS 3 Zrotation Xrotation Yrotation
            JOINT right_radius
            {
              OFFSET -25.15693 0.02248979 -1.271978
              CHANNELS 3 Zrotation Xrotation Yrotation
              End Site
              {
                OFFSET -15 0 0
              }
            }
          }
        }
      }
      JOINT left_manubrium
      {
        OFFSET 5.722621 16.35077 3.967754
        CHANNELS 3 Zrotation Xrotation Yrotation
        JOINT left_clavicle
        {
          OFFSET 13.16364 1.694482 -4.693211
          CHANNELS 3 Zrotation Xrotation Yrotation
          JOINT left_humerus
          {
            OFFSET 29.39168 -1.063119 -2.237045
            CHANNELS 3 Zrotation Xrotation Yrotation
            JOINT left_radius
            {
              OFFSET 24.59957 -0.9528479 0.9047498
              CHANNELS 3 Zrotation Xrotation Yrotation
              End Site
              {
                OFFSET 15 -0 -0
              }
            }
          }
        }
      }
    }
  }
}
MOTION
Frames: 9
Frame Time: 0.0416666666667
247.0212 105.7181 3095.713 0.8152426 -7.876235 1.243574 4.659971 12.75476 3.083387 -0 9.695825 -0 -4.430458 -13.59563 -3.169344 1.057841 -21.50973 -3.806748 -0 36.44973 -0 -6.656361 -7.898029 19.95235 -6.024687 -3.41145 4.557746 3.546958 8.519243 -6.604782 -0.9227869 22.91455 7.025751 2.431891 -21.54588 6.413848 4.94466 -22.64974 12.6872 79.97407 33.22255 -11.69892 -0 0 19.20366 -17.43807 6.880042 14.42641 1.375583 -16.64005 -3.428085 -94.80424 29.59918 28.69457 0 0 -13.64697 -5.314495 9.650684 17.47044
247.4824 104.6518 3101.42 0.241203 -6.940322 0.5588851 4.633594 15.64644 2.665508 -0 9.930513 -0 -3.728811 -15.72366 -2.164137 2.127847 -24.51274 -3.250711 -0 26.36755 -0 -6.633524 -7.771595 20.39502 -6.096612 -3.425481 4.495297 3.588369 8.479055 -6.635639 -0.9473745 22.93222 7.063949 2.420514 -21.5309 6.433868 4.950824 -22.65077 12.71219 79.97112 33.22787 -11.71306 -0 0 19.1975 -17.45059 6.872742 14.47108 1.343502 -16.60739 -3.436457 -94.75934 29.68372 28.63481 0 0 -13.72028 -5.459144 9.644046 17.57561
248.0851 103.4575 3107.439 -0.09559379 -6.150222 -0.1208233 4.137131 17.90345 2.323121 -0 11.43314 -0 -3.163478 -16.57736 -1.220714 2.200504 -25.85341 -3.444504 -0 19.55923 -0 -6.449246 -7.656426 20.60442 -6.145907 -3.435365 4.44687 3.620281 8.452667 -6.66104 -0.9642306 22.9475 7.090061 2.411691 -21.51875 6.449064 4.959071 -22.64271 12.72979 79.98325 33.23381 -11.74569 -0 0 19.17891 -17.44179 6.868868 14.48884 1.321228 -16.58961 -3.446358 -94.73101 29.75056 28.58605 0 0 -13.77725 -5.564131 9.648924 17.6556
248.8363 102.3968 3113.883 0.008843734 -5.671124 -0.7448326 3.020023 19.52482 2.264034 -0 14.63115 -0 -2.790434 -15.35078 -0.4920595 1.205418 -25.77976 -4.513599 -0 16.55207 -0 -6.062284 -7.708432 20.72173 -6.168893 -3.440613 4.416419 3.64021 8.442126 -6.678953 -0.9721373 22.95922 7.101964 2.406042 -21.51024 6.458069 4.968679 -22.62671 12.73861 80.00905 33.23943 -11.7937 -0 0 19.1502 -17.41273 6.868494 14.47866 1.31033 -16.58798 -3.457115 -94.72204 29.7946 28.55323 0 0 -13.81277 -5.621771 9.664853 17.70471
249.7178 101.669 3120.753 0.5096874 -5.573166 -1.202751 1.549486 20.39753 2.483375 -0 19.81664 -0 -2.528277 -11.89329 -0.1002925 -0.4837743 -24.54376 -6.069349 -0 16.39265 -0 -5.424926 -7.966235 20.84711 -6.165193 -3.441247 4.405534 3.647218 8.447455 -6.688344 -0.9709888 22.9666 7.09941 2.403812 -21.50581 6.460409 4.978767 -22.60479 12.7384 80.04553 33.24397 -11.85219 -0 0 19.11471 -17.36688 6.871316 14.44291 1.311023 -16.60177 -3.467891 -94.73247 29.81345 28.53882 0 0 -13.8247 -5.63004 9.690007 17.72072
250.6872 101.4176 3127.907 1.199791 -5.847202 -1.360572 0.1782844 20.26417 2.756421 -0 26.90744 -0 -2.351765 -6.861708 -0.0981549 -2.374015 -22.25588 -7.57907 -0 17.67283 -0 -4.604451 -8.449268 20.93556 -6.137164 -3.43764 4.413601 3.641761 8.466997 -6.68914 -0.9615781 22.96931 7.083731 2.404912 -21.50558 6.456443 4.988465 -22.57928 12.72987 80.08888 33.24702 -11.9156 -0 0 19.07603 -17.30916 6.876823 14.38641 1.322398 -16.62874 -3.477798 -94.75997 29.80736 28.54268 0 0 -13.81384 -5.59184 9.72172 17.70458
251.6894 101.7171 3135.104 1.834204 -6.414104 -1.117786 -0.7325978 18.75996 2.815283 -0 35.24306 -0 -2.378223 -1.370439 -0.4398296 -4.061121 -18.92139 -8.696155 -0 19.18625 -0 -3.753172 -9.192924 20.8656 -6.088669 -3.430325 4.438637 3.625151 8.498202 -6.681905 -0.9451992 22.96735 7.057146 2.409052 -21.50942 6.447027 4.997016 -22.55244 12.71428 80.13524 33.24848 -11.97859 -0 0 19.03738 -17.2449 6.884427 14.315 1.342921 -16.66591 -3.486023 -94.80094 29.77826 28.56293 0 0 -13.78277 -5.512939 9.757044 17.65922
252.6733 102.5364 3142.072 2.21989 -7.135998 -0.4598342 -1.056357 15.55363 2.554309 -0 43.5306 -0 -2.75709 3.492195 -0.9914453 -5.275222 -14.61161 -9.328444 -0 20.10439 -0 -2.981389 -10.19477 20.55194 -6.024044 -3.419871 4.478071 3.599056 8.538306 -6.667513 -0.9233221 22.96092 7.022161 2.415868 -21.51704 6.43318 5.003824 -22.52624 12.6931 80.18116 33.24843 -12.03657 -0 0 19.00145 -17.17902 6.893537 14.23448 1.370831 -16.71021 -3.49193 -94.85139 29.72875 28.5969 0 0 -13.73485 -5.400155 9.793137 17.58838
253.6075 103.7111 3148.604 2.262288 -7.841057 0.52077 -0.8862594 10.5417 2.096353 -0 50.07952 -0 -3.485682 6.955009 -1.623154 -5.880998 -9.607779 -9.552548 -0 19.99527 -0 -2.309174 -11.36579 19.98033 -5.9476 -3.406848 4.529134 3.565274 8.584652 -6.646999 -0.8974339 22.95039 6.981254 2.424969 -21.52798 6.415924 5.008471 -22.50227 12.66784 80.22381 33.24706 -12.0859 -0 0 18.9703 -17.11574 6.903581 14.15015 1.404337 -16.75883 -3.495105 -94.90753 29.66174 28.64172 0 0 -13.67354 -5.260548 9.82748 17.49618
